<svg xmlns="http://www.w3.org/2000/svg" xml:space="preserve" width="825.29" height="181.23" viewBox="0 0 218.36 47.95"><g style="opacity:1"><path d="M4.84 35.25q0 .94-.67 1.59-.67.67-1.59.67h-.07q-.92 0-1.59-.67-.67-.65-.67-1.6V21.62q0-4.62 3.27-7.92 3.28-3.27 7.92-3.27 5.53 0 8.9 4.42 3.35-4.42 8.88-4.42 4.64 0 7.91 3.27 3.28 3.3 3.28 7.92v13.64q0 .94-.65 1.59-.67.67-1.6.67h-.06q-.94 0-1.59-.67-.67-.65-.67-1.6V21.62q0-2.73-1.93-4.67-1.93-1.93-4.69-1.93-2.73 0-4.66 1.93-1.94 1.94-1.94 4.67v13.64q0 .94-.67 1.59-.64.67-1.58.67h-.05q-.95 0-1.62-.67-.67-.65-.67-1.6V21.62q0-2.73-1.93-4.67-1.93-1.93-4.66-1.93t-4.67 1.93-1.93 4.67zM58.9 10.42q5.6 0 9.58 3.97 3.97 3.97 3.97 9.57v11.29q0 .94-.67 1.59-.67.67-1.6.67h-.07q-.91 0-1.58-.67-.67-.65-.67-1.6v-1.13q-3.85 3.4-8.96 3.4-5.6 0-9.57-3.97t-3.97-9.58 3.97-9.57 9.57-3.97m0 4.59q-3.72 0-6.35 2.63-2.6 2.63-2.6 6.32 0 3.72 2.6 6.35 2.63 2.6 6.35 2.6t6.33-2.6q2.63-2.63 2.63-6.35 0-3.7-2.63-6.32Q62.64 15 58.9 15m23.1 20.24q0 .94-.67 1.59-.67.67-1.6.67h-.07q-.91 0-1.58-.67-.67-.65-.67-1.6V21.69q0-4.66 3.3-7.96t7.96-3.3q4.64 0 7.94 3.3t3.3 7.96v13.57q0 .94-.67 1.59-.65.67-1.6.67h-.04q-.94 0-1.61-.67-.67-.65-.67-1.6V21.69q0-2.75-1.94-4.71Q91.43 15 88.68 15q-2.78 0-4.74 1.96-1.93 1.96-1.93 4.71zm27.46-22.55q0-.94-.67-1.61t-1.6-.67h-.07q-.91 0-1.58.67t-.67 1.61v13.02q0 4.67 3.3 7.94 3.3 3.3 7.96 3.3 3.7 0 6.65-2.18v1.66q0 2.73-2.01 4.71-1.99 1.96-4.64 1.96-2.09 0-3.87-1.04-1.76-1.02-2.66-2.7-.4-.75-1.16-1.07-.77-.3-1.56-.02l-.1.05q-.97.32-1.34 1.29-.4.94.07 1.86 1.44 2.82 4.22 4.49 2.88 1.73 6.4 1.73 4.39 0 7.76-3.3 3.47-3.37 3.47-7.96V12.7q0-.94-.67-1.61-.64-.67-1.58-.67h-.05q-.95 0-1.62.67-.66.67-.66 1.61v13.02q0 2.78-1.96 4.72-1.94 1.96-4.7 1.96t-4.73-1.96q-1.93-1.96-1.93-4.72zM142.53.25q-4.24 0-7.22 2.98-2.93 2.95-2.98 7.19v24.83q0 .94.67 1.59.67.67 1.6.67h.07q.91 0 1.58-.67.67-.65.67-1.6v-20.2h7.02q.95 0 1.62-.68.64-.67.64-1.6v-.06q0-.94-.64-1.59-.67-.67-1.62-.67h-7.02v-.02q.03-2.33 1.64-3.97 1.64-1.64 3.97-1.64h1.41q.95 0 1.62-.64.64-.67.64-1.61V2.5q0-.95-.64-1.62-.67-.64-1.62-.64zm19.94 14.8q3.72 0 6.33 2.64 2.63 2.63 2.63 6.35 0 3.7-2.63 6.32-2.6 2.63-6.33 2.63t-6.35-2.63q-2.6-2.63-2.6-6.32 0-3.72 2.6-6.35 2.63-2.63 6.35-2.63m0-4.63q-5.6 0-9.57 3.97t-3.97 9.57 3.97 9.58 9.57 3.97q5.6 0 9.58-3.97 3.97-3.97 3.97-9.58t-3.97-9.57-9.58-3.97M183.56.25q.91 0 1.58.64.67.67.67 1.62v32.74q0 .94-.67 1.59-.67.67-1.58.67h-.08q-.92 0-1.59-.67-.67-.65-.67-1.6V2.52q0-.95.67-1.62.67-.64 1.6-.64zm21 14.8q-3.71 0-6.34 2.64-2.6 2.63-2.6 6.35 0 3.7 2.6 6.32 2.63 2.63 6.35 2.63t6.32-2.63q2.63-2.63 2.63-6.32 0-3.72-2.63-6.35-2.6-2.63-6.32-2.63m11.3-14.8q.91 0 1.58.64.67.67.67 1.62v21.53q-.03 5.58-4 9.52-3.96 3.95-9.54 3.95-5.61 0-9.58-3.97t-3.97-9.58T195 14.4t9.58-3.97q5.1 0 8.95 3.4V2.5q0-.95.67-1.62.67-.64 1.59-.64z" style="font-size:192px;font-family:&quot;Typo Round Regular Demo&quot;;-inkscape-font-specification:&quot;Typo Round Regular Demo, Normal&quot;;baseline-shift:baseline;white-space:pre;display:inline;overflow:visible;vector-effect:none;fill:#fff;stop-color:#000;stop-opacity:1"/><path d="M142.53 0a10 10 0 0 0-7.4 3.05q-2.99 3.03-3.04 7.37v24.83q0 1.05.74 1.77.75.73 1.76.74h.08q1.01-.01 1.76-.74a2.4 2.4 0 0 0 .74-1.77V15.28h6.77q1.05 0 1.8-.74.7-.75.71-1.79v-.05q0-1.04-.72-1.76a2.5 2.5 0 0 0-1.79-.74h-6.72a5.24 5.24 0 0 1 5.3-5.14h1.42q1.05 0 1.79-.71.72-.75.72-1.8v-.04q0-1.04-.71-1.79h-.01a2.5 2.5 0 0 0-1.79-.72Zm40.95 0q-1.01.01-1.76.71-.74.76-.75 1.8v32.74q0 1.05.75 1.76.74.75 1.76.75h.08q1.02 0 1.76-.75a2.4 2.4 0 0 0 .74-1.76V2.51q0-1.04-.74-1.8a2.5 2.5 0 0 0-1.76-.71Zm32.3 0q-1.02.01-1.76.71-.75.76-.75 1.8v10.87a13.3 13.3 0 0 0-8.7-3.21q-5.71 0-9.76 4.04a13.3 13.3 0 0 0-4.04 9.75q.01 5.72 4.04 9.75a13.3 13.3 0 0 0 9.76 4.05q5.68 0 9.72-4.02a13.3 13.3 0 0 0 4.07-9.7V2.5q0-1.04-.74-1.8a2.5 2.5 0 0 0-1.77-.71Zm-73.25.5h1.41a1.97 1.97 0 0 1 2.01 2v.06a1.97 1.97 0 0 1-2 2h-1.42q-2.43 0-4.15 1.71a5.8 5.8 0 0 0-1.7 4.15v.28h7.26q.84 0 1.44.6.58.56.57 1.4v.05q0 .85-.57 1.44-.6.6-1.44.6h-7.27v20.46q0 .84-.59 1.4v.01q-.6.6-1.41.6h-.08q-.81 0-1.4-.6h-.01c-.4-.4-.6-.84-.6-1.41V10.42q.06-4.14 2.9-7.02a9.6 9.6 0 0 1 7.05-2.9m40.95 0h.08q.81 0 1.4.57.6.6.6 1.44v32.74q0 .84-.59 1.4v.01q-.6.6-1.41.6h-.08q-.81 0-1.4-.6h-.01c-.4-.4-.6-.84-.6-1.41V2.51q0-.84.6-1.44.6-.58 1.41-.57m32.3 0h.07q.81 0 1.42.57.6.6.59 1.44v21.53a12.8 12.8 0 0 1-3.92 9.34 12.8 12.8 0 0 1-9.37 3.88q-5.51 0-9.4-3.9t-3.9-9.4 3.9-9.4q3.89-3.9 9.4-3.89 5.01-.01 8.79 3.34l.41.36V2.51q0-.84.6-1.44.6-.58 1.4-.57M11.44 10.17q-4.74 0-8.1 3.35A11 11 0 0 0 0 21.6v13.64q.01 1.05.74 1.77.76.73 1.77.74h.07q1.02-.01 1.76-.74a2.4 2.4 0 0 0 .75-1.77V21.61q0-2.63 1.86-4.49a6 6 0 0 1 4.49-1.86q2.63 0 4.48 1.86a6 6 0 0 1 1.87 4.49v13.64q0 1.05.74 1.77.74.73 1.79.74h.05a2.4 2.4 0 0 0 1.76-.75 2.4 2.4 0 0 0 .74-1.76V21.61q0-2.63 1.87-4.49a6 6 0 0 1 4.48-1.86q2.65 0 4.51 1.86a6 6 0 0 1 1.87 4.49v13.64q0 1.05.74 1.76a2.4 2.4 0 0 0 1.76.75h.05a2.47 2.47 0 0 0 2.5-2.51V21.61a11 11 0 0 0-3.34-8.1 11 11 0 0 0-8.09-3.34c-3.65 0-6.63 1.46-8.88 4.3a10.9 10.9 0 0 0-8.9-4.3m47.47 0q-5.7 0-9.75 4.04a13.3 13.3 0 0 0-4.04 9.75q0 5.72 4.04 9.75a13.3 13.3 0 0 0 9.75 4.05c3.3 0 6.19-1.13 8.7-3.21v.7q0 1.05.75 1.76.75.75 1.77.75h.07q1.02 0 1.76-.75a2.4 2.4 0 0 0 .75-1.76V23.96q0-5.7-4.05-9.75a13.3 13.3 0 0 0-9.75-4.04m29.77 0q-4.77 0-8.14 3.37a11.1 11.1 0 0 0-3.37 8.14v13.57q0 1.05.74 1.77.75.73 1.76.74h.08q1.02-.01 1.76-.74a2.4 2.4 0 0 0 .75-1.77V21.68a6.2 6.2 0 0 1 1.86-4.54 6.2 6.2 0 0 1 4.56-1.88q2.66 0 4.53 1.88a6.2 6.2 0 0 1 1.87 4.54v13.57q0 1.05.74 1.76.74.75 1.79.75h.05q1.04 0 1.76-.75a2.4 2.4 0 0 0 .75-1.76V21.68q-.01-4.77-3.38-8.14a11 11 0 0 0-8.11-3.37m18.45 0q-1.02.01-1.76.74-.74.74-.74 1.8v13.01q0 4.77 3.37 8.12a11.1 11.1 0 0 0 8.14 3.37c2.35 0 4.48-.72 6.4-2.02v1.25q0 2.62-1.94 4.53a6.1 6.1 0 0 1-4.46 1.9 7.3 7.3 0 0 1-3.75-1.01 6.5 6.5 0 0 1-2.56-2.61 2.6 2.6 0 0 0-1.29-1.18 2.5 2.5 0 0 0-1.74-.03h-.01l-.12.06.04-.01q-1.06.36-1.5 1.43-.42 1.05.09 2.07a11 11 0 0 0 4.3 4.59 12.4 12.4 0 0 0 6.54 1.77q4.5 0 7.94-3.37a11 11 0 0 0 3.54-8.14V12.7q0-1.05-.74-1.79a2.4 2.4 0 0 0-1.76-.74h-.05q-1.05 0-1.8.74-.73.74-.74 1.8v13.01a6 6 0 0 1-1.88 4.54 6 6 0 0 1-4.51 1.89q-2.68 0-4.56-1.89a6.2 6.2 0 0 1-1.87-4.54V12.7q0-1.05-.74-1.79a2.5 2.5 0 0 0-1.76-.74zm55.34 0q-5.7 0-9.75 4.04a13.3 13.3 0 0 0-4.04 9.75q0 5.72 4.04 9.75a13.3 13.3 0 0 0 9.75 4.05q5.72 0 9.75-4.05a13.3 13.3 0 0 0 4.05-9.75q0-5.7-4.05-9.75a13.3 13.3 0 0 0-9.75-4.04m-151.03.5q5.41 0 8.7 4.32l.2.26.2-.26c2.2-2.9 5.06-4.32 8.68-4.32q4.55 0 7.74 3.2a10.6 10.6 0 0 1 3.2 7.74v13.64q0 .84-.57 1.41-.6.6-1.44.6h-.05q-.84 0-1.4-.6h-.01c-.4-.4-.6-.84-.6-1.41V21.61q0-2.83-2-4.84a6.7 6.7 0 0 0-4.87-2.01q-2.82.01-4.84 2a6.6 6.6 0 0 0-2 4.85v13.64q0 .84-.6 1.4v.01c-.4.4-.84.6-1.41.6h-.05q-.84 0-1.44-.6c-.4-.4-.6-.84-.6-1.41V21.61q0-2.83-2-4.84a6.6 6.6 0 0 0-4.84-2.01q-2.83.01-4.84 2a6.6 6.6 0 0 0-2.01 4.85v13.64q0 .84-.6 1.4v.01q-.6.6-1.4.6H2.5q-.81 0-1.41-.6c-.4-.4-.6-.84-.6-1.41V21.61q0-4.52 3.2-7.74a10.5 10.5 0 0 1 7.74-3.2m47.47 0q5.51 0 9.4 3.9 3.9 3.88 3.9 9.4v11.28q0 .84-.6 1.4v.01q-.6.6-1.41.6h-.08q-.81 0-1.4-.6c-.41-.4-.6-.84-.6-1.41v-1.7l-.42.37a12.8 12.8 0 0 1-8.79 3.34q-5.5 0-9.4-3.9t-3.9-9.4 3.9-9.4 9.4-3.89m29.77 0q4.53 0 7.76 3.23a10.6 10.6 0 0 1 3.23 7.78v13.57q0 .84-.6 1.4v.01c-.4.4-.84.6-1.41.6h-.05q-.84 0-1.44-.6c-.4-.4-.6-.84-.6-1.41V21.68q0-2.86-2-4.89a6.7 6.7 0 0 0-4.89-2.03q-2.88 0-4.92 2.03-2 2.04-2 4.9v13.56q0 .84-.6 1.4v.01q-.6.6-1.41.6h-.08q-.81 0-1.4-.6h-.01c-.4-.4-.6-.84-.6-1.41V21.68q0-4.57 3.23-7.78a10.6 10.6 0 0 1 7.79-3.23m18.45 0h.08q.81 0 1.4.6.6.59.6 1.43v13.02q0 2.86 2.01 4.9a6.7 6.7 0 0 0 4.92 2.03q2.86-.01 4.86-2.03a6.7 6.7 0 0 0 2.04-4.9V12.7q0-.84.6-1.43.59-.6 1.43-.6h.05q.84 0 1.4.6.6.59.6 1.43v23.74q.01 4.48-3.4 7.78a10.5 10.5 0 0 1-7.58 3.23q-3.47 0-6.27-1.7a10.7 10.7 0 0 1-4.13-4.39 1.8 1.8 0 0 1-.06-1.65c.23-.6.6-.95 1.19-1.15h.01l.1-.05q.7-.24 1.37.02.7.29 1.04.95a7 7 0 0 0 2.75 2.8 8 8 0 0 0 4 1.08q2.76 0 4.81-2.03a6.7 6.7 0 0 0 2.09-4.9v-2.15l-.4.3a10.6 10.6 0 0 1-6.5 2.13q-4.56 0-7.79-3.23a10.5 10.5 0 0 1-3.22-7.76V12.7q0-.84.6-1.43.59-.6 1.4-.6m55.34 0q5.51 0 9.4 3.9 3.9 3.88 3.9 9.4 0 5.5-3.9 9.4t-9.4 3.89-9.4-3.9-3.89-9.4 3.9-9.4q3.88-3.9 9.4-3.89M58.91 14.76q-3.82 0-6.52 2.7a9 9 0 0 0-2.68 6.5q0 3.82 2.67 6.53a9 9 0 0 0 6.53 2.68q3.83 0 6.5-2.68a9 9 0 0 0 2.7-6.53q0-3.79-2.7-6.5a8.8 8.8 0 0 0-6.5-2.7m103.56.05q-3.82 0-6.52 2.7a9 9 0 0 0-2.68 6.53q0 3.79 2.68 6.5a9 9 0 0 0 6.52 2.7q3.83 0 6.5-2.7a9 9 0 0 0 2.7-6.5q0-3.82-2.7-6.53a8.8 8.8 0 0 0-6.5-2.7m42.1 0q-3.83 0-6.53 2.7a9 9 0 0 0-2.68 6.53q0 3.79 2.68 6.5a9 9 0 0 0 6.53 2.7q3.82 0 6.5-2.7a9 9 0 0 0 2.7-6.5q0-3.82-2.7-6.53a8.8 8.8 0 0 0-6.5-2.7m-145.66.45a8.3 8.3 0 0 1 6.15 2.55 8.4 8.4 0 0 1 2.56 6.15q0 3.62-2.56 6.18a8.3 8.3 0 0 1-6.15 2.53 8.4 8.4 0 0 1-6.17-2.53 8.4 8.4 0 0 1-2.53-6.18q0-3.58 2.53-6.15a8.4 8.4 0 0 1 6.17-2.55m103.56.05a8.3 8.3 0 0 1 6.15 2.55 8.4 8.4 0 0 1 2.56 6.18q0 3.59-2.56 6.15a8.3 8.3 0 0 1-6.15 2.55 8.4 8.4 0 0 1-6.17-2.55 8.4 8.4 0 0 1-2.53-6.15q0-3.62 2.53-6.18a8.4 8.4 0 0 1 6.17-2.55m42.1 0a8.3 8.3 0 0 1 6.14 2.55 8.4 8.4 0 0 1 2.56 6.18q.01 3.59-2.56 6.15a8.3 8.3 0 0 1-6.14 2.55 8.4 8.4 0 0 1-6.18-2.55 8.4 8.4 0 0 1-2.53-6.15q0-3.62 2.53-6.18a8.4 8.4 0 0 1 6.18-2.55" style="font-size:192px;font-family:&quot;Typo Round Regular Demo&quot;;-inkscape-font-specification:&quot;Typo Round Regular Demo, Normal&quot;;baseline-shift:baseline;white-space:pre;display:inline;overflow:visible;vector-effect:none;stop-color:#000;stop-opacity:1"/></g></svg>