<svg xmlns="http://www.w3.org/2000/svg" xmlns:svg="http://www.w3.org/2000/svg" xmlns:xlink="http://www.w3.org/1999/xlink" id="svg1" width="860.906" height="860.906" version="1.1" viewBox="0 0 227.781 227.781" xml:space="preserve"><defs id="defs1"><linearGradient id="swatch40"><stop style="stop-color:#000;stop-opacity:1" id="stop40" offset="0"/></linearGradient><linearGradient id="linearGradient58"><stop style="stop-color:#000;stop-opacity:1" id="stop59" offset=".032"/><stop style="stop-color:#c321e0;stop-opacity:1" id="stop1" offset=".315"/><stop style="stop-color:#553d8f;stop-opacity:1" id="stop62" offset=".341"/><stop style="stop-color:#311d2c;stop-opacity:1" id="stop60" offset=".753"/></linearGradient><linearGradient id="swatch58"><stop style="stop-color:#6df4fc;stop-opacity:1" id="stop58" offset="0"/></linearGradient><filter style="color-interpolation-filters:sRGB" id="filter58" width="1.136" height="1.118" x="-.068" y="-.059"><feGaussianBlur id="feGaussianBlur58" stdDeviation="3.003"/></filter><radialGradient id="radialGradient60" cx="107.61" cy="127.142" r="136.887" fx="107.61" fy="127.142" gradientTransform="matrix(1.3609557,-1.2734913,1.3662239,1.2784209,-212.95715,101.64089)" gradientUnits="userSpaceOnUse" xlink:href="#linearGradient58"/><filter style="color-interpolation-filters:sRGB" id="filter63" width="1.051" height="1.03" x="-.025" y="-.015"><feGaussianBlur id="feGaussianBlur63" stdDeviation=".568"/></filter><filter style="color-interpolation-filters:sRGB" id="filter64" width="1.049" height="1.038" x="-.024" y="-.019"><feGaussianBlur id="feGaussianBlur64" stdDeviation=".568"/></filter><filter style="color-interpolation-filters:sRGB" id="filter65" width="1.071" height="1.166" x="-.035" y="-.083"><feGaussianBlur id="feGaussianBlur65" stdDeviation=".568"/></filter><filter style="color-interpolation-filters:sRGB" id="filter66" width="1.059" height="1.105" x="-.03" y="-.053"><feGaussianBlur id="feGaussianBlur66" stdDeviation=".568"/></filter><filter style="color-interpolation-filters:sRGB" id="filter67" width="1.197" height="1.054" x="-.098" y="-.027"><feGaussianBlur id="feGaussianBlur67" stdDeviation=".568"/></filter><filter style="color-interpolation-filters:sRGB" id="filter68" width="1.545" height="1.08" x="-.272" y="-.04"><feGaussianBlur id="feGaussianBlur68" stdDeviation=".568"/></filter><filter style="color-interpolation-filters:sRGB" id="filter69" width="1.499" height="1.106" x="-.25" y="-.053"><feGaussianBlur id="feGaussianBlur69" stdDeviation=".568"/></filter><filter style="color-interpolation-filters:sRGB" id="filter70" width="1.128" height="1.061" x="-.064" y="-.03"><feGaussianBlur id="feGaussianBlur70" stdDeviation=".568"/></filter><filter style="color-interpolation-filters:sRGB" id="filter71" width="1.068" height="1.16" x="-.034" y="-.08"><feGaussianBlur id="feGaussianBlur71" stdDeviation=".568"/></filter><filter style="color-interpolation-filters:sRGB" id="filter72" width="1.054" height="1.082" x="-.027" y="-.041"><feGaussianBlur id="feGaussianBlur72" stdDeviation=".568"/></filter><filter style="color-interpolation-filters:sRGB" id="filter73" width="1.096" height="1.069" x="-.048" y="-.034"><feGaussianBlur id="feGaussianBlur73" stdDeviation=".568"/></filter><filter style="color-interpolation-filters:sRGB" id="filter74" width="1.16" height="1.521" x="-.08" y="-.261"><feGaussianBlur id="feGaussianBlur74" stdDeviation=".568"/></filter><filter style="color-interpolation-filters:sRGB" id="filter75" width="1.2" height="1.164" x="-.1" y="-.082"><feGaussianBlur id="feGaussianBlur75" stdDeviation=".568"/></filter><filter style="color-interpolation-filters:sRGB" id="filter76" width="1.059" height="1.141" x="-.03" y="-.071"><feGaussianBlur id="feGaussianBlur76" stdDeviation=".568"/></filter><filter style="color-interpolation-filters:sRGB" id="filter77" width="1.3" height="1.048" x="-.15" y="-.024"><feGaussianBlur id="feGaussianBlur77" stdDeviation=".568"/></filter><filter style="color-interpolation-filters:sRGB" id="filter78" width="1.174" height="1.053" x="-.087" y="-.026"><feGaussianBlur id="feGaussianBlur78" stdDeviation=".568"/></filter><filter style="color-interpolation-filters:sRGB" id="filter79" width="1.133" height="1.116" x="-.067" y="-.058"><feGaussianBlur id="feGaussianBlur79" stdDeviation=".568"/></filter><filter style="color-interpolation-filters:sRGB" id="filter80" width="1.054" height="1.245" x="-.027" y="-.122"><feGaussianBlur id="feGaussianBlur80" stdDeviation=".568"/></filter><filter style="color-interpolation-filters:sRGB" id="filter81" width="1.197" height="1.11" x="-.098" y="-.055"><feGaussianBlur id="feGaussianBlur81" stdDeviation=".568"/></filter><filter style="color-interpolation-filters:sRGB" id="filter82" width="1.074" height="2.712" x="-.037" y="-.856"><feGaussianBlur id="feGaussianBlur82" stdDeviation=".568"/></filter><filter style="color-interpolation-filters:sRGB" id="filter83" width="1.102" height="2.998" x="-.051" y="-.999"><feGaussianBlur id="feGaussianBlur83" stdDeviation=".568"/></filter><filter style="color-interpolation-filters:sRGB" id="filter84" width="1.152" height="1.133" x="-.076" y="-.067"><feGaussianBlur id="feGaussianBlur84" stdDeviation=".568"/></filter><filter style="color-interpolation-filters:sRGB" id="filter85" width="1.077" height="1.363" x="-.039" y="-.182"><feGaussianBlur id="feGaussianBlur85" stdDeviation=".568"/></filter><filter style="color-interpolation-filters:sRGB" id="filter86" width="1.21" height="1.184" x="-.105" y="-.092"><feGaussianBlur id="feGaussianBlur86" stdDeviation=".568"/></filter><filter style="color-interpolation-filters:sRGB" id="filter87" width="1.053" height="1.115" x="-.026" y="-.058"><feGaussianBlur id="feGaussianBlur87" stdDeviation=".568"/></filter><filter style="color-interpolation-filters:sRGB" id="filter88" width="1.062" height="1.162" x="-.031" y="-.081"><feGaussianBlur id="feGaussianBlur88" stdDeviation=".568"/></filter><filter style="color-interpolation-filters:sRGB" id="filter89" width="1.097" height="12.987" x="-.049" y="-5.993"><feGaussianBlur id="feGaussianBlur89" stdDeviation=".568"/></filter><filter style="color-interpolation-filters:sRGB" id="filter90" width="1.128" height="2.998" x="-.064" y="-.999"><feGaussianBlur id="feGaussianBlur90" stdDeviation=".568"/></filter><filter style="color-interpolation-filters:sRGB" id="filter91" width="1.15" height="1.083" x="-.075" y="-.042"><feGaussianBlur id="feGaussianBlur91" stdDeviation=".568"/></filter><filter style="color-interpolation-filters:sRGB" id="filter92" width="1.749" height="1.479" x="-.375" y="-.24"><feGaussianBlur id="feGaussianBlur92" stdDeviation=".568"/></filter><filter style="color-interpolation-filters:sRGB" id="filter93" width="1.599" height="1.15" x="-.3" y="-.075"><feGaussianBlur id="feGaussianBlur93" stdDeviation=".568"/></filter><filter style="color-interpolation-filters:sRGB" id="filter94" width="1.856" height="1.231" x="-.428" y="-.115"><feGaussianBlur id="feGaussianBlur94" stdDeviation=".568"/></filter><filter style="color-interpolation-filters:sRGB" id="filter95" width="1.363" height="1.207" x="-.182" y="-.103"><feGaussianBlur id="feGaussianBlur95" stdDeviation=".568"/></filter><filter style="color-interpolation-filters:sRGB" id="filter96" width="1.061" height="1.174" x="-.03" y="-.087"><feGaussianBlur id="feGaussianBlur96" stdDeviation=".568"/></filter><filter style="color-interpolation-filters:sRGB" id="filter97" width="1.1" height="1.133" x="-.05" y="-.067"><feGaussianBlur id="feGaussianBlur97" stdDeviation=".568"/></filter><filter style="color-interpolation-filters:sRGB" id="filter167" width="1.234" height="1.202" x="-.117" y="-.101"><feGaussianBlur id="feGaussianBlur167" stdDeviation="4.9"/></filter><filter style="color-interpolation-filters:sRGB" id="filter168" width="1.18" height="1.156" x="-.09" y="-.078"><feGaussianBlur id="feGaussianBlur168" stdDeviation="3.905"/></filter><filter style="color-interpolation-filters:sRGB" id="filter1" width="1.135" height="1.079" x="-.068" y="-.04"><feGaussianBlur id="feGaussianBlur1" stdDeviation="1.974"/></filter><filter style="color-interpolation-filters:sRGB" id="filter2" width="1.13" height="1.103" x="-.065" y="-.051"><feGaussianBlur id="feGaussianBlur2" stdDeviation="1.974"/></filter><filter style="color-interpolation-filters:sRGB" id="filter3" width="1.19" height="1.446" x="-.095" y="-.223"><feGaussianBlur id="feGaussianBlur3" stdDeviation="1.974"/></filter><filter style="color-interpolation-filters:sRGB" id="filter4" width="1.159" height="1.281" x="-.079" y="-.141"><feGaussianBlur id="feGaussianBlur4" stdDeviation="1.974"/></filter><filter style="color-interpolation-filters:sRGB" id="filter5" width="1.526" height="1.145" x="-.263" y="-.073"><feGaussianBlur id="feGaussianBlur5" stdDeviation="1.974"/></filter><filter style="color-interpolation-filters:sRGB" id="filter6" width="2.458" height="1.215" x="-.729" y="-.108"><feGaussianBlur id="feGaussianBlur6" stdDeviation="1.974"/></filter><filter style="color-interpolation-filters:sRGB" id="filter7" width="2.337" height="1.284" x="-.668" y="-.142"><feGaussianBlur id="feGaussianBlur7" stdDeviation="1.974"/></filter><filter style="color-interpolation-filters:sRGB" id="filter8" width="1.341" height="1.162" x="-.171" y="-.081"><feGaussianBlur id="feGaussianBlur8" stdDeviation="1.974"/></filter><filter style="color-interpolation-filters:sRGB" id="filter9" width="1.181" height="1.428" x="-.091" y="-.214"><feGaussianBlur id="feGaussianBlur9" stdDeviation="1.974"/></filter><filter style="color-interpolation-filters:sRGB" id="filter10" width="1.145" height="1.22" x="-.073" y="-.11"><feGaussianBlur id="feGaussianBlur10" stdDeviation="1.974"/></filter><filter style="color-interpolation-filters:sRGB" id="filter11" width="1.257" height="1.184" x="-.128" y="-.092"><feGaussianBlur id="feGaussianBlur11" stdDeviation="1.974"/></filter><filter style="color-interpolation-filters:sRGB" id="filter12" width="1.428" height="2.395" x="-.214" y="-.697"><feGaussianBlur id="feGaussianBlur12" stdDeviation="1.974"/></filter><filter style="color-interpolation-filters:sRGB" id="filter13" width="1.535" height="1.439" x="-.267" y="-.22"><feGaussianBlur id="feGaussianBlur13" stdDeviation="1.974"/></filter><filter style="color-interpolation-filters:sRGB" id="filter14" width="1.159" height="1.377" x="-.079" y="-.189"><feGaussianBlur id="feGaussianBlur14" stdDeviation="1.974"/></filter><filter style="color-interpolation-filters:sRGB" id="filter15" width="1.802" height="1.127" x="-.401" y="-.064"><feGaussianBlur id="feGaussianBlur15" stdDeviation="1.974"/></filter><filter style="color-interpolation-filters:sRGB" id="filter16" width="1.465" height="1.141" x="-.232" y="-.071"><feGaussianBlur id="feGaussianBlur16" stdDeviation="1.974"/></filter><filter style="color-interpolation-filters:sRGB" id="filter17" width="1.356" height="1.311" x="-.178" y="-.156"><feGaussianBlur id="feGaussianBlur17" stdDeviation="1.974"/></filter><filter style="color-interpolation-filters:sRGB" id="filter18" width="1.146" height="1.655" x="-.073" y="-.327"><feGaussianBlur id="feGaussianBlur18" stdDeviation="1.974"/></filter><filter style="color-interpolation-filters:sRGB" id="filter19" width="1.526" height="1.294" x="-.263" y="-.147"><feGaussianBlur id="feGaussianBlur19" stdDeviation="1.974"/></filter><filter style="color-interpolation-filters:sRGB" id="filter20" width="1.198" height="5.583" x="-.099" y="-2.291"><feGaussianBlur id="feGaussianBlur20" stdDeviation="1.974"/></filter><filter style="color-interpolation-filters:sRGB" id="filter21" width="1.272" height="6.346" x="-.136" y="-2.673"><feGaussianBlur id="feGaussianBlur21" stdDeviation="1.974"/></filter><filter style="color-interpolation-filters:sRGB" id="filter22" width="1.406" height="1.356" x="-.203" y="-.178"><feGaussianBlur id="feGaussianBlur22" stdDeviation="1.974"/></filter><filter style="color-interpolation-filters:sRGB" id="filter23" width="1.207" height="1.972" x="-.103" y="-.486"><feGaussianBlur id="feGaussianBlur23" stdDeviation="1.974"/></filter><filter style="color-interpolation-filters:sRGB" id="filter24" width="1.563" height="1.494" x="-.281" y="-.247"><feGaussianBlur id="feGaussianBlur24" stdDeviation="1.974"/></filter><filter style="color-interpolation-filters:sRGB" id="filter25" width="1.141" height="1.308" x="-.071" y="-.154"><feGaussianBlur id="feGaussianBlur25" stdDeviation="1.974"/></filter><filter style="color-interpolation-filters:sRGB" id="filter26" width="1.167" height="1.433" x="-.084" y="-.217"><feGaussianBlur id="feGaussianBlur26" stdDeviation="1.974"/></filter><filter style="color-interpolation-filters:sRGB" id="filter27" width="1.261" height="33.079" x="-.13" y="-16.039"><feGaussianBlur id="feGaussianBlur27" stdDeviation="1.974"/></filter><filter style="color-interpolation-filters:sRGB" id="filter28" width="1.341" height="6.346" x="-.171" y="-2.673"><feGaussianBlur id="feGaussianBlur28" stdDeviation="1.974"/></filter><filter style="color-interpolation-filters:sRGB" id="filter29" width="1.401" height="1.223" x="-.2" y="-.111"><feGaussianBlur id="feGaussianBlur29" stdDeviation="1.974"/></filter><filter style="color-interpolation-filters:sRGB" id="filter30" width="3.005" height="2.283" x="-1.002" y="-.642"><feGaussianBlur id="feGaussianBlur30" stdDeviation="1.974"/></filter><filter style="color-interpolation-filters:sRGB" id="filter31" width="2.604" height="1.401" x="-.802" y="-.2"><feGaussianBlur id="feGaussianBlur31" stdDeviation="1.974"/></filter><filter style="color-interpolation-filters:sRGB" id="filter32" width="3.291" height="1.617" x="-1.146" y="-.308"><feGaussianBlur id="feGaussianBlur32" stdDeviation="1.974"/></filter><filter style="color-interpolation-filters:sRGB" id="filter33" width="1.972" height="1.553" x="-.486" y="-.277"><feGaussianBlur id="feGaussianBlur33" stdDeviation="1.974"/></filter><filter style="color-interpolation-filters:sRGB" id="filter34" width="1.162" height="1.465" x="-.081" y="-.232"><feGaussianBlur id="feGaussianBlur34" stdDeviation="1.974"/></filter><filter style="color-interpolation-filters:sRGB" id="filter35" width="1.267" height="1.356" x="-.134" y="-.178"><feGaussianBlur id="feGaussianBlur35" stdDeviation="1.974"/></filter><filter style="color-interpolation-filters:sRGB" id="filter36" width="1.035" height="1.03" x="-.017" y="-.015"><feGaussianBlur id="feGaussianBlur36" stdDeviation=".552"/></filter><clipPath id="clipPath39" clipPathUnits="userSpaceOnUse"><g id="use39"><ellipse style="display:inline;opacity:1;fill:none;stroke-width:10;stroke-linecap:round;stroke-linejoin:round;stroke-dasharray:none" id="ellipse39" cx="92.094" cy="118.706" rx="109.284" ry="90.382" transform="translate(92.800032,45.697005)"/></g></clipPath><clipPath id="clipPath45" clipPathUnits="userSpaceOnUse"/></defs><metadata id="metadata37"/><g id="g46" style="display:inline" clip-path="none" transform="matrix(1,0,0,-1,-86.109261,286.73022)"><g id="layer4" style="display:inline" transform="translate(92.800035,45.697005)"><rect style="opacity:1;fill:url(#radialGradient60);stroke:none;stroke-width:1.846;stroke-linecap:round;stroke-linejoin:round;stroke-dasharray:none;stroke-opacity:1" id="rect58" width="400" height="345.679" x="-92.8" y="-45.697"/></g><g id="layer3" style="display:inline;stroke:#d55ae3;stroke-opacity:1" transform="translate(92.800035,45.697005)"><path style="mix-blend-mode:normal;fill:none;stroke:#d55ae3;stroke-width:1.3;stroke-linecap:round;stroke-linejoin:round;stroke-dasharray:none;stroke-opacity:1;filter:url(#filter1)" id="path2" d="m 106.50339,36.62104 c 0,31.245476 0,31.245476 0,31.245476 l -26.541852,37.628954 -12.766969,27.21381 -8.399322,21.50226 -31.91742,18.4785"/><path style="mix-blend-mode:normal;fill:none;stroke:#d55ae3;stroke-width:1.3;stroke-linecap:round;stroke-linejoin:round;stroke-dasharray:none;stroke-opacity:1;filter:url(#filter2)" id="path3" d="m 106.16742,68.202489 c 21.83823,25.533934 29.22964,36.621041 29.22964,36.621041 l 25.19796,51.40384 28.22172,16.79864 v 0 0"/><path style="mix-blend-mode:normal;fill:none;stroke:#d55ae3;stroke-width:1.3;stroke-linecap:round;stroke-linejoin:round;stroke-dasharray:none;stroke-opacity:1;filter:url(#filter3)" id="path4" d="M 80.297511,105.49547 47.708145,93.736423 23.854072,81.977374 23.518099,81.305428"/><path style="mix-blend-mode:normal;fill:none;stroke:#d55ae3;stroke-width:1.3;stroke-linecap:round;stroke-linejoin:round;stroke-dasharray:none;stroke-opacity:1;filter:url(#filter4)" id="path5" d="M 38.636876,89.70475 63.83484,78.617645 82.985294,67.866516 106.50339,51.403845"/><path style="mix-blend-mode:normal;fill:none;stroke:#d55ae3;stroke-width:1.3;stroke-linecap:round;stroke-linejoin:round;stroke-dasharray:none;stroke-opacity:1;filter:url(#filter5)" id="path6" d="m 29.56561,85.337104 8.063349,23.518096 4.70362,13.10294 0.671946,14.44684 7.055429,23.18212"/><path style="mix-blend-mode:normal;fill:none;stroke:#d55ae3;stroke-width:1.3;stroke-linecap:round;stroke-linejoin:round;stroke-dasharray:none;stroke-opacity:1;filter:url(#filter6)" id="path7" d="m 33.597283,168.65837 7.391406,-50.05996"/><path style="mix-blend-mode:normal;fill:none;stroke:#d55ae3;stroke-width:1.3;stroke-linecap:round;stroke-linejoin:round;stroke-dasharray:none;stroke-opacity:1;filter:url(#filter7)" id="path8" d="m 43.340498,132.70928 4.367647,-15.79073 3.6957,-22.174207"/><path style="mix-blend-mode:normal;fill:none;stroke:#d55ae3;stroke-width:1.3;stroke-linecap:round;stroke-linejoin:round;stroke-dasharray:none;stroke-opacity:1;filter:url(#filter8)" id="path9" d="M 82.313348,161.60294 66.858596,133.04525 50.731901,95.080316"/><path style="mix-blend-mode:normal;fill:none;stroke:#d55ae3;stroke-width:1.3;stroke-linecap:round;stroke-linejoin:round;stroke-dasharray:none;stroke-opacity:1;filter:url(#filter9)" id="path10" d="M 46.364252,93.06448 79.625565,78.281675 105.83145,67.866516"/><path style="mix-blend-mode:normal;fill:none;stroke:#d55ae3;stroke-width:1.3;stroke-linecap:round;stroke-linejoin:round;stroke-dasharray:none;stroke-opacity:1;filter:url(#filter10)" id="path11" d="m 34.26923,168.65837 36.957013,9.07126 18.478507,9.74322 18.14253,5.37556 h 0.33598 v 0 l 0.33597,24.862"/><path style="mix-blend-mode:normal;fill:none;stroke:#d55ae3;stroke-width:1.3;stroke-linecap:round;stroke-linejoin:round;stroke-dasharray:none;stroke-opacity:1;filter:url(#filter11)" id="path12" d="m 107.84728,192.51244 25.53394,-29.90158 16.46267,-28.55769"/><path style="mix-blend-mode:normal;fill:none;stroke:#d55ae3;stroke-width:1.3;stroke-linecap:round;stroke-linejoin:round;stroke-dasharray:none;stroke-opacity:1;filter:url(#filter12)" id="path13" d="m 133.71719,162.27489 25.19797,-7.72738"/><path style="mix-blend-mode:normal;fill:none;stroke:#d55ae3;stroke-width:1.3;stroke-linecap:round;stroke-linejoin:round;stroke-dasharray:none;stroke-opacity:1;filter:url(#filter13)" id="path14" d="m 159.25113,157.23529 -20.15837,24.52602"/><path style="mix-blend-mode:normal;fill:none;stroke:#d55ae3;stroke-width:1.3;stroke-linecap:round;stroke-linejoin:round;stroke-dasharray:none;stroke-opacity:1;filter:url(#filter14)" id="path15" d="m 108.51923,194.52828 67.86651,-28.55769"/><path style="mix-blend-mode:normal;fill:none;stroke:#e046f1;stroke-width:1.3;stroke-linecap:round;stroke-linejoin:round;stroke-dasharray:none;stroke-opacity:1;filter:url(#filter15)" id="path16" d="m 186.46493,170.00226 -13.43892,-51.06787 3.02376,-17.13462 10.41516,-16.462666"/><path style="mix-blend-mode:normal;fill:none;stroke:#d55ae3;stroke-width:1.3;stroke-linecap:round;stroke-linejoin:round;stroke-dasharray:none;stroke-opacity:1;filter:url(#filter16)" id="path17" d="m 187.13688,85.001131 -11.08711,5.711539 -12.09502,4.703619 5.37557,21.166291 5.37556,7.3914 -0.33597,0.33597 v 0 l -3.02376,15.11878 -3.02375,8.06335 0.33597,13.77489"/><path style="mix-blend-mode:normal;fill:none;stroke:#d55ae3;stroke-width:1.3;stroke-linecap:round;stroke-linejoin:round;stroke-dasharray:none;stroke-opacity:1;filter:url(#filter17)" id="path18" d="m 147.49208,129.34955 17.13462,-34.605207 -12.09503,2.687784 -8.73529,5.039593 -9.40724,1.67986"/><path style="mix-blend-mode:normal;fill:none;stroke:#d55ae3;stroke-width:1.3;stroke-linecap:round;stroke-linejoin:round;stroke-dasharray:none;stroke-opacity:1;filter:url(#filter18)" id="path19" d="m 59.13122,153.20362 22.174208,7.72737 25.869912,8.7353 25.86991,-6.04751"/><path style="mix-blend-mode:normal;fill:none;stroke:#d55ae3;stroke-width:1.3;stroke-linecap:round;stroke-linejoin:round;stroke-dasharray:none;stroke-opacity:1;filter:url(#filter19)" id="path20" d="M 125.98982,165.29864 146.48416,128.6776"/><path style="mix-blend-mode:normal;fill:none;stroke:#d55ae3;stroke-width:1.3;stroke-linecap:round;stroke-linejoin:round;stroke-dasharray:none;stroke-opacity:1;filter:url(#filter20)" id="path21" d="m 80.633484,104.82353 16.798642,1.67986 15.118774,0.33598 9.40724,-0.67195 13.10295,-1.67986"/><path style="mix-blend-mode:normal;fill:none;stroke:#d55ae3;stroke-width:1.3;stroke-linecap:round;stroke-linejoin:round;stroke-dasharray:none;stroke-opacity:1;filter:url(#filter21)" id="path22" d="m 126.99774,93.06448 -8.06335,0.671943 -7.05543,-2.015836 -9.74321,0.335973 -9.407244,1.679863 H 87.35294"/><path style="mix-blend-mode:normal;fill:none;stroke:#d55ae3;stroke-width:1.3;stroke-linecap:round;stroke-linejoin:round;stroke-dasharray:none;stroke-opacity:1;filter:url(#filter22)" id="path23" d="m 81.977374,161.93891 26.541856,30.23756"/><path style="mix-blend-mode:normal;fill:none;stroke:#d55ae3;stroke-width:1.3;stroke-linecap:round;stroke-linejoin:round;stroke-dasharray:none;stroke-opacity:1;filter:url(#filter23)" id="path24" d="M 104.15158,169.33031 86.345021,167.65045 67.530543,161.26697 52.075791,158.24321"/><path style="mix-blend-mode:normal;fill:none;stroke:#d55ae3;stroke-width:1.3;stroke-linecap:round;stroke-linejoin:round;stroke-dasharray:none;stroke-opacity:1;filter:url(#filter24)" id="path25" d="m 53.755654,157.23529 10.415159,11.08711 8.735296,10.75113"/><path style="mix-blend-mode:normal;fill:none;stroke:#d55ae3;stroke-width:1.3;stroke-linecap:round;stroke-linejoin:round;stroke-dasharray:none;stroke-opacity:1;filter:url(#filter25)" id="path26" d="M 182.43326,86.680994 148.83597,74.921945 128.34163,64.84276 106.16742,51.739818"/><path style="mix-blend-mode:normal;fill:none;stroke:#d55ae3;stroke-width:1.3;stroke-linecap:round;stroke-linejoin:round;stroke-dasharray:none;stroke-opacity:1;filter:url(#filter26)" id="path27" d="m 106.50339,67.866516 64.50679,24.86199"/><path style="mix-blend-mode:normal;fill:none;stroke:#d55ae3;stroke-width:1.3;stroke-linecap:round;stroke-linejoin:round;stroke-dasharray:none;stroke-opacity:1;filter:url(#filter27)" id="path28" d="m 127.33371,93.40045 h 31.24547 l 10.07919,0.335973"/><path style="mix-blend-mode:normal;fill:none;stroke:#d55ae3;stroke-width:1.3;stroke-linecap:round;stroke-linejoin:round;stroke-dasharray:none;stroke-opacity:1;filter:url(#filter28)" id="path29" d="M 55.43552,96.088233 72.234162,95.080316 87.016967,94.072397"/><path style="mix-blend-mode:normal;fill:none;stroke:#d55ae3;stroke-width:1.3;stroke-linecap:round;stroke-linejoin:round;stroke-dasharray:none;stroke-opacity:1;filter:url(#filter29)" id="path30" d="m 69.882352,130.35747 20.494345,33.93325 2.015836,6.38349 4.367647,8.06334"/><path style="mix-blend-mode:normal;fill:none;stroke:#d55ae3;stroke-width:1.3;stroke-linecap:round;stroke-linejoin:round;stroke-dasharray:none;stroke-opacity:1;filter:url(#filter30)" id="path31" d="m 160.25905,155.21946 5.37556,-8.39933"/><path style="mix-blend-mode:normal;fill:none;stroke:#d55ae3;stroke-width:1.3;stroke-linecap:round;stroke-linejoin:round;stroke-dasharray:none;stroke-opacity:1;filter:url(#filter31)" id="path32" d="m 166.64253,113.22285 -6.71945,26.87783"/><path style="mix-blend-mode:normal;fill:none;stroke:#d55ae3;stroke-width:1.3;stroke-linecap:round;stroke-linejoin:round;stroke-dasharray:none;stroke-opacity:1;filter:url(#filter32)" id="path33" d="m 164.96267,121.95814 4.70362,17.47059"/><path style="mix-blend-mode:normal;fill:none;stroke:#d55ae3;stroke-width:1.3;stroke-linecap:round;stroke-linejoin:round;stroke-dasharray:none;stroke-opacity:1;filter:url(#filter33)" id="path34" d="m 106.83937,53.755654 11.0871,19.486428"/><path style="mix-blend-mode:normal;fill:none;stroke:#d55ae3;stroke-width:1.3;stroke-linecap:round;stroke-linejoin:round;stroke-dasharray:none;stroke-opacity:1;filter:url(#filter34)" id="path35" d="m 114.90271,64.84276 24.52602,9.071266 12.76697,9.743212 12.09502,4.367649 17.13462,-1.00792"/><path style="mix-blend-mode:normal;fill:none;stroke:#d55ae3;stroke-width:1.3;stroke-linecap:round;stroke-linejoin:round;stroke-dasharray:none;stroke-opacity:1;filter:url(#filter35)" id="path36" d="m 96.088233,57.451357 -13.774885,7.055429 -15.118779,7.727376 -5.039592,3.6957 -6.383483,10.751132 v 1.00792"/></g><g id="g165" style="display:inline;stroke:#d55ae3;stroke-opacity:1" transform="translate(92.800035,45.697005)"><path style="mix-blend-mode:normal;fill:none;stroke:#d55ae3;stroke-width:1.3;stroke-linecap:round;stroke-linejoin:round;stroke-dasharray:none;stroke-opacity:1;filter:url(#filter63)" id="path131" d="m 106.50339,36.62104 c 0,31.245476 0,31.245476 0,31.245476 l -26.541852,37.628954 -12.766969,27.21381 -8.399322,21.50226 -31.91742,18.4785"/><path style="mix-blend-mode:normal;fill:none;stroke:#d55ae3;stroke-width:1.3;stroke-linecap:round;stroke-linejoin:round;stroke-dasharray:none;stroke-opacity:1;filter:url(#filter64)" id="path132" d="m 106.16742,68.202489 c 21.83823,25.533934 29.22964,36.621041 29.22964,36.621041 l 25.19796,51.40384 28.22172,16.79864 v 0 0"/><path style="opacity:.861017;mix-blend-mode:normal;fill:none;stroke:#d55ae3;stroke-width:1.3;stroke-linecap:round;stroke-linejoin:round;stroke-dasharray:none;stroke-opacity:1;filter:url(#filter65)" id="path133" d="M 80.297511,105.49547 47.708145,93.736423 23.854072,81.977374 23.518099,81.305428"/><path style="opacity:.735593;mix-blend-mode:normal;fill:none;stroke:#d55ae3;stroke-width:1.3;stroke-linecap:round;stroke-linejoin:round;stroke-dasharray:none;stroke-opacity:1;filter:url(#filter66)" id="path134" d="M 38.636876,89.70475 63.83484,78.617645 82.985294,67.866516 106.50339,51.403845" transform="matrix(0.9844826,0,0,0.97328127,1.687696,1.3235247)"/><path style="opacity:.798305;mix-blend-mode:normal;fill:none;stroke:#d55ae3;stroke-width:1.3;stroke-linecap:round;stroke-linejoin:round;stroke-dasharray:none;stroke-opacity:1;filter:url(#filter67)" id="path135" d="m 29.56561,85.337104 8.063349,23.518096 4.70362,13.10294 0.671946,14.44684 7.055429,23.18212"/><path style="opacity:.559322;mix-blend-mode:normal;fill:none;stroke:#d55ae3;stroke-width:1.3;stroke-linecap:round;stroke-linejoin:round;stroke-dasharray:none;stroke-opacity:1;filter:url(#filter68)" id="path136" d="m 33.597283,168.65837 7.391406,-50.05996"/><path style="opacity:.333898;mix-blend-mode:normal;fill:none;stroke:#d55ae3;stroke-width:1.3;stroke-linecap:round;stroke-linejoin:round;stroke-dasharray:none;stroke-opacity:1;filter:url(#filter69)" id="path137" d="m 43.340498,132.70928 4.367647,-15.79073 3.6957,-22.174207"/><path style="mix-blend-mode:normal;fill:none;stroke:#d55ae3;stroke-width:1.3;stroke-linecap:round;stroke-linejoin:round;stroke-dasharray:none;stroke-opacity:1;filter:url(#filter70)" id="path138" d="M 82.313348,161.60294 66.858596,133.04525 50.731901,95.080316"/><path style="mix-blend-mode:normal;fill:none;stroke:#d55ae3;stroke-width:1.3;stroke-linecap:round;stroke-linejoin:round;stroke-dasharray:none;stroke-opacity:1;filter:url(#filter71)" id="path139" d="M 46.364252,93.06448 79.625565,78.281675 105.83145,67.866516" transform="matrix(0.9750452,0,0,0.99275366,2.6852418,0.47076044)"/><path style="mix-blend-mode:normal;fill:none;stroke:#d55ae3;stroke-width:1.3;stroke-linecap:round;stroke-linejoin:round;stroke-dasharray:none;stroke-opacity:1;filter:url(#filter72)" id="path140" d="m 34.26923,168.65837 36.957013,9.07126 18.478507,9.74322 18.14253,5.37556 h 0.33598 v 0 l 0.33597,24.862"/><path style="mix-blend-mode:normal;fill:none;stroke:#d55ae3;stroke-width:1.3;stroke-linecap:round;stroke-linejoin:round;stroke-dasharray:none;stroke-opacity:1;filter:url(#filter73)" id="path141" d="m 107.84728,192.51244 25.53394,-29.90158 16.46267,-28.55769"/><path style="mix-blend-mode:normal;fill:none;stroke:#d55ae3;stroke-width:1.3;stroke-linecap:round;stroke-linejoin:round;stroke-dasharray:none;stroke-opacity:1;filter:url(#filter74)" id="path142" d="m 133.71719,162.27489 25.19797,-7.72738"/><path style="opacity:.7;mix-blend-mode:normal;fill:none;stroke:#d55ae3;stroke-width:1.3;stroke-linecap:round;stroke-linejoin:round;stroke-dasharray:none;stroke-opacity:1;filter:url(#filter75)" id="path143" d="m 159.25113,157.23529 -20.15837,24.52602"/><path style="mix-blend-mode:normal;fill:none;stroke:#d55ae3;stroke-width:1.3;stroke-linecap:round;stroke-linejoin:round;stroke-dasharray:none;stroke-opacity:1;filter:url(#filter76)" id="path144" d="m 108.51923,194.52828 67.86651,-28.55769"/><path style="mix-blend-mode:normal;fill:none;stroke:#e046f1;stroke-width:1.3;stroke-linecap:round;stroke-linejoin:round;stroke-dasharray:none;stroke-opacity:1;filter:url(#filter77)" id="path145" d="m 186.46493,170.00226 -13.43892,-51.06787 3.02376,-17.13462 10.41516,-16.462666"/><path style="opacity:.610169;mix-blend-mode:normal;fill:none;stroke:#d55ae3;stroke-width:1.3;stroke-linecap:round;stroke-linejoin:round;stroke-dasharray:none;stroke-opacity:1;filter:url(#filter78)" id="path146" d="m 187.13688,85.001131 -11.08711,5.711539 -12.09502,4.703619 5.37557,21.166291 5.37556,7.3914 -0.33597,0.33597 v 0 l -3.02376,15.11878 -3.02375,8.06335 0.33597,13.77489"/><path style="opacity:.849153;mix-blend-mode:normal;fill:none;stroke:#d55ae3;stroke-width:1.3;stroke-linecap:round;stroke-linejoin:round;stroke-dasharray:none;stroke-opacity:1;filter:url(#filter79)" id="path147" d="m 147.49208,129.34955 17.13462,-34.605207 -12.09503,2.687784 -8.73529,5.039593 -9.40724,1.67986"/><path style="mix-blend-mode:normal;fill:none;stroke:#d55ae3;stroke-width:1.3;stroke-linecap:round;stroke-linejoin:round;stroke-dasharray:none;stroke-opacity:1;filter:url(#filter80)" id="path148" d="m 59.13122,153.20362 22.174208,7.72737 25.869912,8.7353 25.86991,-6.04751"/><path style="opacity:.328814;mix-blend-mode:normal;fill:none;stroke:#d55ae3;stroke-width:1.3;stroke-linecap:round;stroke-linejoin:round;stroke-dasharray:none;stroke-opacity:1;filter:url(#filter81)" id="path149" d="M 125.98982,165.29864 146.48416,128.6776"/><path style="opacity:.40339;mix-blend-mode:normal;fill:none;stroke:#d55ae3;stroke-width:1.3;stroke-linecap:round;stroke-linejoin:round;stroke-dasharray:none;stroke-opacity:1;filter:url(#filter82)" id="path150" d="m 80.633484,104.82353 16.798642,1.67986 15.118774,0.33598 9.40724,-0.67195 13.10295,-1.67986"/><path style="opacity:.742373;mix-blend-mode:normal;fill:none;stroke:#d55ae3;stroke-width:1.3;stroke-linecap:round;stroke-linejoin:round;stroke-dasharray:none;stroke-opacity:1;filter:url(#filter83)" id="path151" d="m 126.99774,93.06448 -8.06335,0.671943 -7.05543,-2.015836 -9.74321,0.335973 -9.407244,1.679863 H 87.35294"/><path style="opacity:.825424;mix-blend-mode:normal;fill:none;stroke:#d55ae3;stroke-width:1.3;stroke-linecap:round;stroke-linejoin:round;stroke-dasharray:none;stroke-opacity:1;filter:url(#filter84)" id="path152" d="m 81.977374,161.93891 26.541856,30.23756"/><path style="opacity:.359322;mix-blend-mode:normal;fill:none;stroke:#d55ae3;stroke-width:1.3;stroke-linecap:round;stroke-linejoin:round;stroke-dasharray:none;stroke-opacity:1;filter:url(#filter85)" id="path153" d="M 104.15158,169.33031 86.345021,167.65045 67.530543,161.26697 52.075791,158.24321"/><path style="opacity:.483051;mix-blend-mode:normal;fill:none;stroke:#d55ae3;stroke-width:1.3;stroke-linecap:round;stroke-linejoin:round;stroke-dasharray:none;stroke-opacity:1;filter:url(#filter86)" id="path154" d="m 53.755654,157.23529 10.415159,11.08711 8.735296,10.75113"/><path style="mix-blend-mode:normal;fill:none;stroke:#d55ae3;stroke-width:1.3;stroke-linecap:round;stroke-linejoin:round;stroke-dasharray:none;stroke-opacity:1;filter:url(#filter87)" id="path155" d="M 182.43326,86.680994 148.83597,74.921945 128.34163,64.84276 106.16742,51.739818"/><path style="mix-blend-mode:normal;fill:none;stroke:#d55ae3;stroke-width:1.3;stroke-linecap:round;stroke-linejoin:round;stroke-dasharray:none;stroke-opacity:1;filter:url(#filter88)" id="path156" d="m 106.50339,67.866516 64.50679,24.86199"/><path style="opacity:.561017;mix-blend-mode:normal;fill:none;stroke:#d55ae3;stroke-width:1.3;stroke-linecap:round;stroke-linejoin:round;stroke-dasharray:none;stroke-opacity:1;filter:url(#filter89)" id="path157" d="m 127.33371,93.40045 h 31.24547 l 10.07919,0.335973"/><path style="opacity:.489831;mix-blend-mode:normal;fill:none;stroke:#d55ae3;stroke-width:1.3;stroke-linecap:round;stroke-linejoin:round;stroke-dasharray:none;stroke-opacity:1;filter:url(#filter90)" id="path158" d="M 55.43552,96.088233 72.234162,95.080316 87.016967,94.072397"/><path style="opacity:.225424;mix-blend-mode:normal;fill:none;stroke:#d55ae3;stroke-width:1.3;stroke-linecap:round;stroke-linejoin:round;stroke-dasharray:none;stroke-opacity:1;filter:url(#filter91)" id="path159" d="m 69.882352,130.35747 20.494345,33.93325 2.015836,6.38349 4.367647,8.06334"/><path style="opacity:.230508;mix-blend-mode:normal;fill:none;stroke:#d55ae3;stroke-width:1.3;stroke-linecap:round;stroke-linejoin:round;stroke-dasharray:none;stroke-opacity:1;filter:url(#filter92)" id="path160" d="m 160.25905,155.21946 5.37556,-8.39933"/><path style="opacity:.289831;mix-blend-mode:normal;fill:none;stroke:#d55ae3;stroke-width:1.3;stroke-linecap:round;stroke-linejoin:round;stroke-dasharray:none;stroke-opacity:1;filter:url(#filter93)" id="path161" d="m 166.64253,113.22285 -6.71945,26.87783"/><path style="opacity:.289831;mix-blend-mode:normal;fill:none;stroke:#d55ae3;stroke-width:1.3;stroke-linecap:round;stroke-linejoin:round;stroke-dasharray:none;stroke-opacity:1;filter:url(#filter94)" id="path162" d="m 164.96267,121.95814 4.70362,17.47059"/><path style="opacity:.408475;mix-blend-mode:normal;fill:none;stroke:#d55ae3;stroke-width:1.3;stroke-linecap:round;stroke-linejoin:round;stroke-dasharray:none;stroke-opacity:1;filter:url(#filter95)" id="path163" d="m 106.83937,53.755654 11.0871,19.486428"/><path style="opacity:.359322;mix-blend-mode:normal;fill:none;stroke:#d55ae3;stroke-width:1.3;stroke-linecap:round;stroke-linejoin:round;stroke-dasharray:none;stroke-opacity:1;filter:url(#filter96)" id="path164" d="m 114.90271,64.84276 24.52602,9.071266 12.76697,9.743212 12.09502,4.367649 17.13462,-1.00792"/><path style="opacity:.367797;mix-blend-mode:normal;fill:none;stroke:#d55ae3;stroke-width:1.3;stroke-linecap:round;stroke-linejoin:round;stroke-dasharray:none;stroke-opacity:1;filter:url(#filter97)" id="path165" d="m 96.088233,57.451357 -13.774885,7.055429 -15.118779,7.727376 -5.039592,3.6957 -6.383483,10.751132 v 1.00792"/></g><g id="layer2" transform="translate(92.800035,45.697005)" style="display:inline"><path style="display:inline;mix-blend-mode:normal;fill:none;stroke:#2ef4ff;stroke-width:6;stroke-linecap:round;stroke-linejoin:round;stroke-dasharray:none;stroke-opacity:1;filter:url(#filter168)" id="path37" d="m 221.40611,100.79185 -68.60263,39.53366 -68.538467,-39.6448 0.06417,-79.17845 68.602638,-39.533652 68.53846,39.644797 z" transform="matrix(1.1887994,0,0,1.1568282,-75.225573,56.42908)"/><path style="display:inline;opacity:.340678;mix-blend-mode:normal;fill:none;stroke:#2ef4ff;stroke-width:8.5273;stroke-linecap:round;stroke-linejoin:round;stroke-dasharray:none;stroke-opacity:1;filter:url(#filter167)" id="path166" d="m 221.40611,100.79185 -68.60263,39.53366 -68.538467,-39.6448 0.06417,-79.17845 68.602638,-39.533652 68.53846,39.644797 z" transform="matrix(1.1887994,0,0,1.1568282,-75.225573,56.42908)"/><path style="display:inline;mix-blend-mode:normal;fill:none;stroke:#2ef4ff;stroke-width:4.26365;stroke-linecap:round;stroke-linejoin:round;stroke-dasharray:none;stroke-opacity:1;filter:url(#filter58)" id="path167" d="m 221.40611,100.79185 -68.60263,39.53366 -68.538467,-39.6448 0.06417,-79.17845 68.602638,-39.533652 68.53846,39.644797 z" transform="matrix(1.1887994,0,0,1.1568282,-75.225573,56.42908)"/></g><g id="layer5" style="display:inline" transform="translate(65.18066,46.345708)"><path style="opacity:.871186;mix-blend-mode:normal;fill:none;stroke:#6df4fc;stroke-width:2.13182;stroke-linecap:round;stroke-linejoin:round;stroke-dasharray:none;stroke-opacity:1;filter:url(#filter36)" id="path1" d="m 221.40611,100.79185 -68.60263,39.53366 -68.538467,-39.6448 0.06417,-79.17845 68.602638,-39.533652 68.53846,39.644797 z" transform="matrix(1.1887994,0,0,1.1568282,-47.606199,55.780376)"/></g></g></svg>